<svg width="35" height="36" viewBox="0 0 35 36" fill="none" xmlns="http://www.w3.org/2000/svg">
<path d="M17.5 10.5463C16.0258 10.5463 14.5847 10.9834 13.3589 11.8025C12.1332 12.6215 11.1778 13.7856 10.6137 15.1476C10.0495 16.5096 9.90191 18.0083 10.1895 19.4541C10.4771 20.9 11.187 22.2281 12.2294 23.2706C13.2719 24.313 14.6 25.0229 16.0459 25.3105C17.4917 25.5981 18.9904 25.4505 20.3524 24.8863C21.7144 24.3222 22.8785 23.3668 23.6975 22.1411C24.5166 20.9153 24.9537 19.4742 24.9537 18C24.9515 16.0238 24.1654 14.1293 22.7681 12.7319C21.3707 11.3346 19.4762 10.5485 17.5 10.5463ZM17.5 21.5648C16.7949 21.5648 16.1057 21.3557 15.5195 20.964C14.9333 20.5723 14.4764 20.0156 14.2065 19.3642C13.9367 18.7128 13.8661 17.996 14.0037 17.3045C14.1412 16.613 14.4807 15.9778 14.9793 15.4793C15.4778 14.9807 16.113 14.6412 16.8045 14.5037C17.496 14.3661 18.2128 14.4367 18.8642 14.7065C19.5156 14.9764 20.0723 15.4333 20.464 16.0195C20.8557 16.6057 21.0648 17.2949 21.0648 18C21.0637 18.9451 20.6878 19.8512 20.0195 20.5195C19.3512 21.1878 18.4451 21.5637 17.5 21.5648ZM25.2778 0.5H9.72222C7.14463 0.502921 4.67344 1.52816 2.8508 3.3508C1.02816 5.17344 0.00292146 7.64463 0 10.2222V25.7778C0.00292146 28.3554 1.02816 30.8266 2.8508 32.6492C4.67344 34.4718 7.14463 35.4971 9.72222 35.5H25.2778C27.8554 35.4971 30.3266 34.4718 32.1492 32.6492C33.9718 30.8266 34.9971 28.3554 35 25.7778V10.2222C34.9971 7.64463 33.9718 5.17344 32.1492 3.3508C30.3266 1.52816 27.8554 0.502921 25.2778 0.5ZM31.1111 25.7778C31.1094 27.3243 30.4942 28.8071 29.4006 29.9006C28.3071 30.9942 26.8243 31.6094 25.2778 31.6111H9.72222C8.17566 31.6094 6.69294 30.9942 5.59936 29.9006C4.50577 28.8071 3.89063 27.3243 3.88889 25.7778V10.2222C3.89063 8.67566 4.50577 7.19294 5.59936 6.09936C6.69294 5.00577 8.17566 4.39063 9.72222 4.38889H25.2778C26.8243 4.39063 28.3071 5.00577 29.4006 6.09936C30.4942 7.19294 31.1094 8.67566 31.1111 10.2222V25.7778ZM28.5185 9.57407C28.5185 10.0868 28.3665 10.5881 28.0816 11.0144C27.7967 11.4408 27.3918 11.7731 26.9181 11.9693C26.4443 12.1655 25.923 12.2169 25.4201 12.1169C24.9172 12.0168 24.4553 11.7699 24.0927 11.4073C23.7301 11.0447 23.4832 10.5828 23.3831 10.0799C23.2831 9.57695 23.3345 9.05567 23.5307 8.58193C23.7269 8.1082 24.0592 7.70329 24.4856 7.41841C24.9119 7.13353 25.4132 6.98148 25.9259 6.98148C26.6133 6.98227 27.2723 7.25567 27.7583 7.7417C28.2443 8.22774 28.5177 8.88672 28.5185 9.57407Z" fill="white"/>
</svg>
