<svg width="33" height="34" viewBox="0 0 33 34" fill="none" xmlns="http://www.w3.org/2000/svg">
<path d="M31.1668 8.65454C29.3846 8.65251 27.676 7.93543 26.4159 6.66062C25.1557 5.38582 24.4469 3.65739 24.4449 1.85455C24.4449 1.36269 24.2517 0.890978 23.9079 0.543184C23.5641 0.195389 23.0978 0 22.6116 0H16.5008C16.0146 0 15.5483 0.195389 15.2045 0.543184C14.8607 0.890978 14.6675 1.36269 14.6675 1.85455V21.6364C14.6673 22.0789 14.5498 22.5132 14.3271 22.8941C14.1044 23.275 13.7847 23.5884 13.4015 23.8017C13.0182 24.015 12.5854 24.1204 12.1482 24.1068C11.711 24.0932 11.2854 23.9612 10.9158 23.7245C10.5462 23.4878 10.2461 23.1551 10.047 22.7611C9.84779 22.3671 9.75678 21.9263 9.78342 21.4846C9.81007 21.0429 9.95339 20.6166 10.1984 20.25C10.4435 19.8835 10.7813 19.5901 11.1766 19.4007C11.4897 19.2501 11.7543 19.0129 11.9396 18.7164C12.1248 18.4199 12.2231 18.0763 12.2231 17.7256L12.2232 11.2904C12.2232 11.0194 12.1645 10.7516 12.0511 10.506C11.9378 10.2603 11.7726 10.0428 11.5672 9.86876C11.3618 9.6947 11.1211 9.5683 10.8622 9.49848C10.6033 9.42865 10.3324 9.4171 10.0686 9.46462C7.77979 9.87913 5.65533 10.9455 3.94459 12.5386C2.23384 14.1317 1.0078 16.1854 0.410349 18.4586C-0.187097 20.7319 -0.131154 23.1304 0.571614 25.3726C1.27438 27.6148 2.59481 29.6077 4.37793 31.1174C6.16104 32.6271 8.33285 33.5909 10.6385 33.8957C12.9441 34.2006 15.2878 33.8338 17.3945 32.8384C19.5013 31.843 21.2837 30.2603 22.5325 28.2762C23.7813 26.292 24.4447 23.9886 24.4449 21.6364L24.4448 17.1038C26.5598 18.0586 28.8507 18.5499 31.1668 18.5455C31.653 18.5455 32.1193 18.3501 32.4631 18.0023C32.8069 17.6545 33 17.1828 33 16.6909V10.5091C33 10.0172 32.8069 9.54552 32.4631 9.19773C32.1193 8.84993 31.653 8.65454 31.1668 8.65454ZM29.3335 14.7056C27.2929 14.4121 25.3534 13.6212 23.6821 12.401C23.4083 12.2017 23.0853 12.0827 22.7489 12.0571C22.4125 12.0315 22.0757 12.1004 21.7754 12.256C21.4752 12.4117 21.2232 12.6481 21.0473 12.9393C20.8714 13.2305 20.7783 13.5652 20.7783 13.9064L20.7784 21.6364C20.7772 23.1849 20.3653 24.7047 19.5857 26.0374C18.8061 27.37 17.6874 28.4666 16.3461 29.2129C15.0049 29.9592 13.4903 30.3277 11.9603 30.2801C10.4303 30.2325 8.9409 29.7705 7.64751 28.9423C6.35412 28.1141 5.30408 26.95 4.60691 25.5714C3.90973 24.1928 3.59096 22.6503 3.68383 21.1046C3.7767 19.5589 4.27782 18.0668 5.13491 16.7838C5.99201 15.5008 7.17369 14.4739 8.55672 13.8102L8.55665 16.6922C7.72351 17.3245 7.06397 18.1617 6.64065 19.1244C6.21733 20.0871 6.04429 21.1433 6.13796 22.1927C6.23163 23.242 6.5889 24.2498 7.17584 25.1202C7.76278 25.9906 8.55991 26.6948 9.49154 27.1659C10.4232 27.637 11.4584 27.8594 12.4989 27.8119C13.5393 27.7644 14.5506 27.4487 15.4365 26.8947C16.3224 26.3407 17.0537 25.5668 17.5608 24.6465C18.0679 23.7262 18.3341 22.69 18.334 21.6364V3.70909H20.9403C21.3185 5.82046 22.3248 7.76473 23.8246 9.282C25.3244 10.7993 27.2464 11.8172 29.3335 12.1998V14.7056Z" fill="white"/>
</svg>
