<svg width="43" height="38" viewBox="0 0 43 38" fill="none" xmlns="http://www.w3.org/2000/svg">
<path d="M42.8267 5.96702C42.6543 5.5504 42.3623 5.19431 41.9878 4.94379C41.6132 4.69326 41.1728 4.55954 40.7223 4.55953L35.3743 4.55944C34.4917 3.18064 33.2812 2.04246 31.8514 1.2468C30.4216 0.451135 28.8169 0.0228243 27.1812 0.000211328C25.8769 -0.00830171 24.5838 0.240465 23.3756 0.732304C22.1674 1.22414 21.0679 1.94942 20.1397 2.86671C19.2116 3.784 18.473 4.87533 17.9663 6.07838C17.4595 7.28142 17.1945 8.57262 17.1863 9.87822L17.1861 10.0355C10.1098 7.84311 4.43334 2.24888 4.37162 2.18728C4.0777 1.89307 3.70896 1.68498 3.30535 1.58555C2.90174 1.48612 2.47864 1.49914 2.08189 1.62321C1.68515 1.74727 1.32988 1.97765 1.05457 2.28938C0.779267 2.60111 0.594423 2.98231 0.520066 3.39168C-1.19394 12.829 1.65334 19.1671 4.34391 22.8222C5.53007 24.4332 6.93265 25.8726 8.51195 27.0996C5.76958 29.8362 2.0033 31.2891 1.96132 31.3051C1.64004 31.4257 1.35014 31.6173 1.11325 31.8658C0.876364 32.1143 0.69862 32.4131 0.593295 32.74C0.48797 33.0669 0.457786 33.4134 0.504998 33.7536C0.55221 34.0938 0.675596 34.4189 0.865942 34.7046C1.2324 35.255 3.41211 38 10.3533 38C24.0418 38 35.4936 27.5225 36.8018 13.9887L42.3329 8.4518C42.6514 8.13292 42.8683 7.72665 42.9562 7.28437C43.0441 6.84209 42.999 6.38365 42.8267 5.96702ZM32.9881 11.3573C32.5964 11.7495 32.3609 12.2711 32.3256 12.8246C31.5899 24.3846 21.9385 33.4399 10.3533 33.4399C9.56065 33.4442 8.76863 33.3943 7.98276 33.2907C9.96164 32.0244 12.196 30.2233 13.7668 27.8645C13.9468 27.5968 14.0678 27.2938 14.1216 26.9756C14.1754 26.6574 14.1609 26.3314 14.0789 26.0193C13.997 25.7071 13.8496 25.4161 13.6465 25.1655C13.4434 24.9148 13.1893 24.7104 12.901 24.5658C12.511 24.3655 4.24836 19.9677 4.56142 8.33416C7.82131 10.8323 13.1079 14.1708 19.0868 15.1686C19.4129 15.223 19.747 15.2057 20.0658 15.1179C20.3846 15.0301 20.6804 14.8738 20.9328 14.66C21.1852 14.4462 21.388 14.1799 21.5273 13.8797C21.6665 13.5795 21.7388 13.2526 21.7391 12.9216L21.7417 9.88211V9.87998C21.7577 8.46216 22.3322 7.10798 23.3401 6.11178C24.348 5.11558 25.708 4.55788 27.1245 4.5599C28.147 4.57411 29.1439 4.88271 29.996 5.44882C30.848 6.01493 31.5193 6.81463 31.9295 7.75237C32.1069 8.15874 32.3988 8.50451 32.7695 8.74733C33.1402 8.99015 33.5736 9.11949 34.0166 9.1195H35.2237L32.9881 11.3573Z" fill="white"/>
</svg>
